<?xml version="1.0"?>
<svg xmlns="http://www.w3.org/2000/svg" id="Layer_1" data-name="Layer 1" viewBox="0 0 512 512" width="512" height="512"><title>Research</title><path d="M397.36,407.315l-19,19,56.757,56.756c.07.069.136.126.2.184.187.168.371.337.558.516a13.51,13.51,0,0,0,18.181-.638,13.341,13.341,0,0,0,.023-19.1Z"/><rect x="365.802" y="387.25" width="14.001" height="28.766" transform="translate(-174.805 381.22) rotate(-44.997)"/><path d="M269.056,205.754c-.009-.579-.02-1.161-.02-1.733,0-2.018-.067-4.031-.168-6.039a23.313,23.313,0,0,1-16.076,6.138c-10.513,0-16.049-5.827-20.091-10.081-3.674-3.866-5.631-5.725-9.943-5.725s-6.268,1.859-9.941,5.725c-4.042,4.254-9.578,10.081-20.09,10.081s-16.049-5.827-20.091-10.081c-3.673-3.866-5.629-5.725-9.941-5.725s-6.268,1.859-9.94,5.725c-4.042,4.254-9.577,10.081-20.09,10.081s-16.048-5.827-20.09-10.081c-3.672-3.866-5.629-5.725-9.939-5.725s-6.267,1.859-9.939,5.725c-4.041,4.254-9.576,10.081-20.088,10.081-9.133,0-14.507-4.4-18.412-8.342q-.221,3.828-.226,7.7A123.34,123.34,0,0,0,59.262,239H206.311A112.016,112.016,0,0,1,269.056,205.754Z"/><path d="M62.67,184.4c3.672,3.866,5.629,5.724,9.939,5.724s6.266-1.858,9.938-5.724c4.041-4.254,9.576-10.082,20.089-10.082s16.048,5.828,20.09,10.082c3.671,3.866,5.628,5.724,9.939,5.724s6.268-1.858,9.939-5.724c4.042-4.254,9.579-10.082,20.091-10.082s16.049,5.828,20.091,10.082c3.673,3.866,5.629,5.724,9.941,5.724s6.267-1.858,9.94-5.724c4.042-4.254,9.578-10.082,20.091-10.082s16.05,5.827,20.093,10.082c3.672,3.866,5.629,5.724,9.941,5.724s6.27-1.858,9.943-5.724c1.212-1.276,2.5-2.636,3.991-3.935A124.733,124.733,0,0,0,252.8,143H68.82a125.562,125.562,0,0,0-12.5,35.607A43.093,43.093,0,0,1,62.67,184.4Z"/><path d="M211.48,100.581A7,7,0,0,1,208,94.529V80H112V94.529a7,7,0,0,1-3.406,6.008A105.979,105.979,0,0,0,77.631,129H243.506A111.1,111.1,0,0,0,211.48,100.581Z"/><path d="M112,53V66h96V53a7,7,0,0,1,7-7h15V25H91V46h14A7,7,0,0,1,112,53Z"/><ellipse cx="287.406" cy="316.3" rx="70.892" ry="70.953" transform="translate(-29.461 603.08) rotate(-89.887)"/><path d="M287.406,218.245A98.055,98.055,0,1,0,385.523,316.3,98.2,98.2,0,0,0,287.406,218.245Zm0,182.946A84.892,84.892,0,1,1,372.36,316.3,85.018,85.018,0,0,1,287.406,401.191Z"/><path d="M194.944,253H64.39c9.652,22.183,25.529,41.266,45.6,53.491a7,7,0,0,1,3.359,5.907l.3,29.6H178.27a111.912,111.912,0,0,1,16.674-89Z"/></svg>
